<mxfile host="app.diagrams.net" modified="2022-04-21T14:00:11.674Z" agent="5.0 (Windows)" etag="dgm4OWcEKNcUVEA-9F3A" version="17.4.0" type="github">
  <diagram id="0TaQlvrkEOElF1sd7Q4E" name="Page-1">
    <mxGraphModel dx="1422" dy="780" grid="1" gridSize="10" guides="1" tooltips="1" connect="1" arrows="1" fold="1" page="1" pageScale="1" pageWidth="1169" pageHeight="827" math="0" shadow="0">
      <root>
        <mxCell id="0" />
        <mxCell id="1" parent="0" />
        <mxCell id="B3szFcHrzICPFLmNVVuF-1" value="WBK" style="rounded=1;whiteSpace=wrap;html=1;" vertex="1" parent="1">
          <mxGeometry x="390" y="475" width="90" height="120" as="geometry" />
        </mxCell>
        <mxCell id="B3szFcHrzICPFLmNVVuF-2" value="HygKo" style="rounded=1;whiteSpace=wrap;html=1;" vertex="1" parent="1">
          <mxGeometry x="270" y="475" width="90" height="120" as="geometry" />
        </mxCell>
        <mxCell id="B3szFcHrzICPFLmNVVuF-3" value="PAE" style="rounded=1;whiteSpace=wrap;html=1;" vertex="1" parent="1">
          <mxGeometry x="610" y="475" width="90" height="120" as="geometry" />
        </mxCell>
        <mxCell id="B3szFcHrzICPFLmNVVuF-11" value="Hygiene" style="rounded=1;whiteSpace=wrap;html=1;fillColor=#fff2cc;strokeColor=#d6b656;" vertex="1" parent="1">
          <mxGeometry x="30" y="277" width="120" height="60" as="geometry" />
        </mxCell>
        <mxCell id="B3szFcHrzICPFLmNVVuF-12" value="&lt;h1&gt;Überblick über die Bildungslandschaft im ÖGD (Infektionsschutz)&lt;br&gt;&lt;/h1&gt;&lt;p&gt;Diese Grafik bietet einen Überblick über Aus- Fort- und Weiterbidlungsmöglichkeiten im Infektionsschutzbereich des ÖGD. Liefern&lt;br&gt;&lt;/p&gt;" style="text;html=1;strokeColor=none;fillColor=none;spacing=5;spacingTop=-20;whiteSpace=wrap;overflow=hidden;rounded=0;" vertex="1" parent="1">
          <mxGeometry x="60" y="50" width="780" height="80" as="geometry" />
        </mxCell>
        <mxCell id="B3szFcHrzICPFLmNVVuF-13" value="Infektionsschutz" style="rounded=1;whiteSpace=wrap;html=1;fillColor=#fff2cc;strokeColor=#d6b656;" vertex="1" parent="1">
          <mxGeometry x="30" y="353" width="120" height="60" as="geometry" />
        </mxCell>
        <mxCell id="B3szFcHrzICPFLmNVVuF-14" value="Krisenmanagment" style="rounded=1;whiteSpace=wrap;html=1;fillColor=#fff2cc;strokeColor=#d6b656;" vertex="1" parent="1">
          <mxGeometry x="30" y="430" width="120" height="60" as="geometry" />
        </mxCell>
        <mxCell id="B3szFcHrzICPFLmNVVuF-15" value="Statistik" style="rounded=1;whiteSpace=wrap;html=1;fillColor=#fff2cc;strokeColor=#d6b656;" vertex="1" parent="1">
          <mxGeometry x="30" y="507" width="120" height="60" as="geometry" />
        </mxCell>
        <mxCell id="B3szFcHrzICPFLmNVVuF-16" value="Wasserhygiene" style="rounded=1;whiteSpace=wrap;html=1;fillColor=#fff2cc;strokeColor=#d6b656;" vertex="1" parent="1">
          <mxGeometry x="30" y="583" width="120" height="60" as="geometry" />
        </mxCell>
        <mxCell id="B3szFcHrzICPFLmNVVuF-17" value="Epikurs" style="rounded=1;whiteSpace=wrap;html=1;" vertex="1" parent="1">
          <mxGeometry x="600" y="345" width="70" height="40" as="geometry" />
        </mxCell>
        <mxCell id="B3szFcHrzICPFLmNVVuF-18" value="Teil PAE" style="rounded=1;whiteSpace=wrap;html=1;" vertex="1" parent="1">
          <mxGeometry x="585" y="150" width="90" height="50" as="geometry" />
        </mxCell>
        <mxCell id="B3szFcHrzICPFLmNVVuF-19" value="HygBeauftragte" style="rounded=1;whiteSpace=wrap;html=1;" vertex="1" parent="1">
          <mxGeometry x="580" y="220" width="80" height="35" as="geometry" />
        </mxCell>
        <mxCell id="B3szFcHrzICPFLmNVVuF-21" value="Facharzt Hygiene" style="rounded=1;whiteSpace=wrap;html=1;" vertex="1" parent="1">
          <mxGeometry x="500" y="475" width="90" height="120" as="geometry" />
        </mxCell>
        <mxCell id="B3szFcHrzICPFLmNVVuF-22" value="IfSG Recht" style="rounded=1;whiteSpace=wrap;html=1;" vertex="1" parent="1">
          <mxGeometry x="420" y="260" width="70" height="40" as="geometry" />
        </mxCell>
        <mxCell id="B3szFcHrzICPFLmNVVuF-23" value="Medzinstudium" style="rounded=1;whiteSpace=wrap;html=1;" vertex="1" parent="1">
          <mxGeometry x="390" y="615" width="200" height="40" as="geometry" />
        </mxCell>
        <mxCell id="B3szFcHrzICPFLmNVVuF-24" value="Stdium" style="rounded=1;whiteSpace=wrap;html=1;" vertex="1" parent="1">
          <mxGeometry x="610" y="615" width="90" height="40" as="geometry" />
        </mxCell>
        <mxCell id="B3szFcHrzICPFLmNVVuF-25" value="" style="endArrow=none;html=1;rounded=0;" edge="1" parent="1">
          <mxGeometry width="50" height="50" relative="1" as="geometry">
            <mxPoint x="180" y="455" as="sourcePoint" />
            <mxPoint x="970" y="455" as="targetPoint" />
          </mxGeometry>
        </mxCell>
        <mxCell id="B3szFcHrzICPFLmNVVuF-26" value="&lt;div&gt;Epidemiologie&lt;/div&gt;" style="rounded=1;whiteSpace=wrap;html=1;fillColor=#fff2cc;strokeColor=#d6b656;" vertex="1" parent="1">
          <mxGeometry x="30" y="200" width="120" height="60" as="geometry" />
        </mxCell>
        <mxCell id="B3szFcHrzICPFLmNVVuF-27" value="Gesundheitsbericht" style="rounded=1;whiteSpace=wrap;html=1;fillColor=#fff2cc;strokeColor=#d6b656;" vertex="1" parent="1">
          <mxGeometry x="30" y="660" width="120" height="60" as="geometry" />
        </mxCell>
        <mxCell id="B3szFcHrzICPFLmNVVuF-28" value="Themen" style="text;html=1;strokeColor=none;fillColor=none;align=center;verticalAlign=middle;whiteSpace=wrap;rounded=0;fontSize=31;" vertex="1" parent="1">
          <mxGeometry x="50" y="755" width="60" height="30" as="geometry" />
        </mxCell>
        <mxCell id="B3szFcHrzICPFLmNVVuF-29" value="" style="endArrow=none;html=1;rounded=0;" edge="1" parent="1">
          <mxGeometry width="50" height="50" relative="1" as="geometry">
            <mxPoint x="390" y="415" as="sourcePoint" />
            <mxPoint x="390" y="225" as="targetPoint" />
          </mxGeometry>
        </mxCell>
        <mxCell id="B3szFcHrzICPFLmNVVuF-30" value="" style="endArrow=none;html=1;rounded=0;" edge="1" parent="1">
          <mxGeometry width="50" height="50" relative="1" as="geometry">
            <mxPoint x="700" y="415" as="sourcePoint" />
            <mxPoint x="700" y="225" as="targetPoint" />
          </mxGeometry>
        </mxCell>
        <mxCell id="B3szFcHrzICPFLmNVVuF-31" value="Lehrbücher" style="rounded=1;whiteSpace=wrap;html=1;" vertex="1" parent="1">
          <mxGeometry x="190" y="253" width="70" height="40" as="geometry" />
        </mxCell>
        <mxCell id="B3szFcHrzICPFLmNVVuF-32" value="Ratgeber" style="rounded=1;whiteSpace=wrap;html=1;" vertex="1" parent="1">
          <mxGeometry x="290" y="255" width="70" height="40" as="geometry" />
        </mxCell>
        <mxCell id="B3szFcHrzICPFLmNVVuF-33" value="BVÖGD Kongress" style="rounded=1;whiteSpace=wrap;html=1;" vertex="1" parent="1">
          <mxGeometry x="785" y="295" width="70" height="40" as="geometry" />
        </mxCell>
        <mxCell id="B3szFcHrzICPFLmNVVuF-35" value="Armut und Gesundheit" style="rounded=1;whiteSpace=wrap;html=1;" vertex="1" parent="1">
          <mxGeometry x="910" y="327" width="70" height="40" as="geometry" />
        </mxCell>
        <mxCell id="B3szFcHrzICPFLmNVVuF-36" value="BFR Kongress" style="rounded=1;whiteSpace=wrap;html=1;" vertex="1" parent="1">
          <mxGeometry x="750" y="225" width="70" height="40" as="geometry" />
        </mxCell>
        <mxCell id="B3szFcHrzICPFLmNVVuF-38" value="Ausbildungen" style="text;html=1;strokeColor=none;fillColor=none;align=center;verticalAlign=middle;whiteSpace=wrap;rounded=0;fontSize=31;" vertex="1" parent="1">
          <mxGeometry x="820" y="570" width="60" height="30" as="geometry" />
        </mxCell>
        <mxCell id="B3szFcHrzICPFLmNVVuF-39" value="Selbstlernen" style="text;html=1;strokeColor=none;fillColor=none;align=center;verticalAlign=middle;whiteSpace=wrap;rounded=0;fontSize=31;" vertex="1" parent="1">
          <mxGeometry x="250" y="332" width="60" height="30" as="geometry" />
        </mxCell>
        <mxCell id="B3szFcHrzICPFLmNVVuF-40" value="Kurse" style="text;html=1;strokeColor=none;fillColor=none;align=center;verticalAlign=middle;whiteSpace=wrap;rounded=0;fontSize=31;" vertex="1" parent="1">
          <mxGeometry x="540" y="277" width="60" height="30" as="geometry" />
        </mxCell>
        <mxCell id="B3szFcHrzICPFLmNVVuF-42" value="Kongresse" style="text;html=1;strokeColor=none;fillColor=none;align=center;verticalAlign=middle;whiteSpace=wrap;rounded=0;fontSize=31;" vertex="1" parent="1">
          <mxGeometry x="790" y="377" width="60" height="30" as="geometry" />
        </mxCell>
        <mxCell id="B3szFcHrzICPFLmNVVuF-43" value="Wiss. Kongresse" style="rounded=1;whiteSpace=wrap;html=1;" vertex="1" parent="1">
          <mxGeometry x="900" y="253" width="70" height="40" as="geometry" />
        </mxCell>
        <mxCell id="B3szFcHrzICPFLmNVVuF-44" value="Krisenmang." style="rounded=1;whiteSpace=wrap;html=1;" vertex="1" parent="1">
          <mxGeometry x="450" y="200" width="70" height="40" as="geometry" />
        </mxCell>
        <mxCell id="B3szFcHrzICPFLmNVVuF-45" value="Wasserhyg" style="rounded=1;whiteSpace=wrap;html=1;" vertex="1" parent="1">
          <mxGeometry x="510" y="335" width="70" height="40" as="geometry" />
        </mxCell>
        <mxCell id="B3szFcHrzICPFLmNVVuF-46" value="GBE" style="rounded=1;whiteSpace=wrap;html=1;" vertex="1" parent="1">
          <mxGeometry x="410" y="337" width="70" height="40" as="geometry" />
        </mxCell>
        <mxCell id="B3szFcHrzICPFLmNVVuF-49" value="Institutionen" style="text;html=1;strokeColor=none;fillColor=none;align=center;verticalAlign=middle;whiteSpace=wrap;rounded=0;fontSize=31;" vertex="1" parent="1">
          <mxGeometry x="1040" y="744" width="60" height="30" as="geometry" />
        </mxCell>
        <mxCell id="B3szFcHrzICPFLmNVVuF-50" value="&lt;div&gt;AÖGW&lt;/div&gt;" style="rounded=1;whiteSpace=wrap;html=1;fillColor=#ffe6cc;strokeColor=#d79b00;" vertex="1" parent="1">
          <mxGeometry x="1020" y="649" width="120" height="60" as="geometry" />
        </mxCell>
        <mxCell id="B3szFcHrzICPFLmNVVuF-51" value="Bundesinstitute" style="rounded=1;whiteSpace=wrap;html=1;fillColor=#ffe6cc;strokeColor=#d79b00;" vertex="1" parent="1">
          <mxGeometry x="1020" y="572" width="120" height="60" as="geometry" />
        </mxCell>
        <mxCell id="B3szFcHrzICPFLmNVVuF-52" value="Gesundheitsämter" style="rounded=1;whiteSpace=wrap;html=1;fillColor=#ffe6cc;strokeColor=#d79b00;" vertex="1" parent="1">
          <mxGeometry x="1020" y="496" width="120" height="60" as="geometry" />
        </mxCell>
        <mxCell id="B3szFcHrzICPFLmNVVuF-53" value="&lt;div&gt;Master&lt;/div&gt;&lt;div&gt;PH/Epi&lt;/div&gt;" style="rounded=1;whiteSpace=wrap;html=1;" vertex="1" parent="1">
          <mxGeometry x="720" y="475" width="90" height="120" as="geometry" />
        </mxCell>
        <mxCell id="B3szFcHrzICPFLmNVVuF-54" value="Universitäten" style="rounded=1;whiteSpace=wrap;html=1;fillColor=#ffe6cc;strokeColor=#d79b00;" vertex="1" parent="1">
          <mxGeometry x="1020" y="415" width="120" height="60" as="geometry" />
        </mxCell>
      </root>
    </mxGraphModel>
  </diagram>
</mxfile>
